<svg width="106" height="27" viewBox="0 0 106 27" fill="none" xmlns="http://www.w3.org/2000/svg">
<path d="M2.9 14C2.9 15.54 3.07 16.94 3.41 18.2C3.75 19.44 4.22 20.5 4.82 21.38C5.44 22.26 6.16 22.94 6.98 23.42C7.82 23.88 8.73 24.11 9.71 24.11C11.95 24.11 13.69 23.24 14.93 21.5C16.17 19.74 16.79 17.14 16.79 13.7C16.79 12.24 16.65 10.87 16.37 9.59C16.09 8.31 15.68 7.19 15.14 6.23C14.6 5.27 13.93 4.52 13.13 3.98C12.33 3.42 11.41 3.14 10.37 3.14C9.15 3.14 8.07 3.44 7.13 4.04C6.21 4.64 5.43 5.44 4.79 6.44C4.17 7.44 3.7 8.6 3.38 9.92C3.06 11.22 2.9 12.58 2.9 14ZM0.0200001 13.88C0.0200001 12.86 0.1 11.83 0.26 10.79C0.44 9.75 0.71 8.75 1.07 7.79C1.43 6.83 1.88 5.93 2.42 5.09C2.98 4.23 3.63 3.49 4.37 2.87C5.13 2.25 6 1.76 6.98 1.4C7.96 1.04 9.05 0.859998 10.25 0.859998C11.85 0.859998 13.24 1.21 14.42 1.91C15.6 2.59 16.58 3.52 17.36 4.7C18.14 5.88 18.72 7.25 19.1 8.81C19.48 10.37 19.67 12.02 19.67 13.76C19.67 16.2 19.35 18.24 18.71 19.88C18.07 21.5 17.26 22.8 16.28 23.78C15.3 24.76 14.22 25.46 13.04 25.88C11.86 26.28 10.73 26.48 9.65 26.48C8.29 26.48 7.02 26.24 5.84 25.76C4.68 25.26 3.66 24.5 2.78 23.48C1.92 22.46 1.24 21.16 0.74 19.58C0.26 17.98 0.0200001 16.08 0.0200001 13.88ZM33.789 16.31C33.789 16.65 33.749 17 33.669 17.36C33.589 17.72 33.459 18.05 33.279 18.35C33.099 18.63 32.859 18.87 32.559 19.07C32.259 19.25 31.889 19.34 31.449 19.34C31.049 19.34 30.679 19.25 30.339 19.07C29.999 18.87 29.829 18.54 29.829 18.08C29.829 17.76 29.909 17.52 30.069 17.36C30.229 17.2 30.409 17.06 30.609 16.94C30.809 16.82 30.989 16.69 31.149 16.55C31.309 16.41 31.389 16.21 31.389 15.95C31.389 15.61 31.259 15.35 30.999 15.17C30.739 14.99 30.419 14.9 30.039 14.9C29.679 14.9 29.269 15.01 28.809 15.23C28.369 15.43 27.949 15.75 27.549 16.19C27.169 16.63 26.849 17.18 26.589 17.84C26.329 18.48 26.199 19.25 26.199 20.15V23.63H27.639C28.679 23.63 29.409 23.74 29.829 23.96C30.249 24.16 30.459 24.49 30.459 24.95C30.459 25.65 30.089 26 29.349 26C28.709 26 28.069 25.99 27.429 25.97C26.809 25.93 26.199 25.91 25.599 25.91C25.279 25.91 24.999 25.92 24.759 25.94C24.519 25.94 24.289 25.95 24.069 25.97C23.849 25.97 23.619 25.98 23.379 26C23.159 26 22.899 26 22.599 26C22.119 26 21.789 25.87 21.609 25.61C21.449 25.33 21.369 25.04 21.369 24.74C21.369 24.48 21.429 24.25 21.549 24.05C21.669 23.85 21.899 23.71 22.239 23.63C22.559 23.55 22.839 23.45 23.079 23.33C23.339 23.19 23.479 22.9 23.499 22.46C23.499 22.22 23.499 21.94 23.499 21.62C23.519 21.3 23.529 20.87 23.529 20.33C23.529 19.79 23.529 19.1 23.529 18.26C23.529 17.42 23.529 16.35 23.529 15.05C23.529 14.77 23.379 14.63 23.079 14.63H22.179C22.019 14.63 21.839 14.62 21.639 14.6C21.439 14.56 21.259 14.51 21.099 14.45C20.939 14.37 20.809 14.27 20.709 14.15C20.589 14.01 20.529 13.84 20.529 13.64C20.529 13.22 20.859 12.92 21.519 12.74C22.199 12.56 23.369 12.47 25.029 12.47C25.549 12.47 25.899 12.53 26.079 12.65C26.259 12.77 26.349 13.09 26.349 13.61V15.08C26.809 14.4 27.339 13.86 27.939 13.46C28.559 13.04 29.269 12.83 30.069 12.83C30.449 12.83 30.859 12.89 31.299 13.01C31.739 13.13 32.139 13.33 32.499 13.61C32.879 13.87 33.189 14.22 33.429 14.66C33.669 15.1 33.789 15.65 33.789 16.31ZM44.9527 7.22C44.9527 7.4 44.8627 7.63 44.6827 7.91C44.5027 8.17 44.2727 8.46 43.9927 8.78C43.7127 9.08 43.3927 9.39 43.0327 9.71C42.6727 10.03 42.3227 10.32 41.9827 10.58C41.6427 10.82 41.3227 11.02 41.0227 11.18C40.7227 11.34 40.4827 11.42 40.3027 11.42C40.0827 11.42 39.8427 11.37 39.5827 11.27C39.3227 11.15 39.1927 10.98 39.1927 10.76C39.1927 10.7 39.3127 10.41 39.5527 9.89C39.7927 9.35 40.0927 8.78 40.4527 8.18C40.8127 7.56 41.2027 7.01 41.6227 6.53C42.0627 6.03 42.4727 5.78 42.8527 5.78C43.4927 5.8 44.0027 5.95 44.3827 6.23C44.7627 6.51 44.9527 6.84 44.9527 7.22ZM44.2927 18.17C44.2927 17.55 44.2427 16.99 44.1427 16.49C44.0427 15.99 43.8727 15.56 43.6327 15.2C43.3927 14.84 43.0727 14.57 42.6727 14.39C42.2727 14.19 41.7627 14.09 41.1427 14.09C40.7427 14.09 40.3527 14.13 39.9727 14.21C39.6127 14.29 39.2927 14.4 39.0127 14.54C38.7327 14.66 38.5027 14.81 38.3227 14.99C38.1627 15.17 38.0827 15.35 38.0827 15.53C38.0827 15.69 38.1227 15.8 38.2027 15.86C38.3027 15.9 38.3727 15.93 38.4127 15.95C38.8127 16.13 39.0127 16.45 39.0127 16.91C39.0127 17.35 38.8527 17.65 38.5327 17.81C38.2127 17.97 37.8827 18.05 37.5427 18.05C37.2027 18.05 36.9127 17.99 36.6727 17.87C36.4527 17.73 36.2727 17.56 36.1327 17.36C35.9927 17.14 35.8927 16.91 35.8327 16.67C35.7927 16.43 35.7727 16.19 35.7727 15.95C35.7727 15.39 35.9027 14.87 36.1627 14.39C36.4427 13.91 36.8227 13.5 37.3027 13.16C37.8027 12.82 38.3927 12.55 39.0727 12.35C39.7727 12.15 40.5427 12.05 41.3827 12.05C43.3227 12.05 44.7427 12.56 45.6427 13.58C46.5427 14.6 46.9927 16.05 46.9927 17.93C46.9927 18.17 46.9827 18.48 46.9627 18.86C46.9627 19.24 46.9527 19.64 46.9327 20.06C46.9127 20.46 46.8927 20.86 46.8727 21.26C46.8727 21.64 46.8727 21.98 46.8727 22.28C46.8727 23.02 46.8827 23.49 46.9027 23.69C46.9227 23.89 47.0027 23.99 47.1427 23.99C47.2427 23.99 47.3127 23.96 47.3527 23.9C47.3927 23.82 47.4127 23.73 47.4127 23.63C47.4327 23.41 47.4827 23.21 47.5627 23.03C47.6427 22.85 47.8827 22.76 48.2827 22.76C48.5827 22.76 48.8127 22.84 48.9727 23C49.1527 23.16 49.2427 23.47 49.2427 23.93C49.2427 24.75 49.0027 25.36 48.5227 25.76C48.0427 26.14 47.4427 26.33 46.7227 26.33C46.2027 26.33 45.7227 26.21 45.2827 25.97C44.8627 25.73 44.5527 25.26 44.3527 24.56C43.7127 25.14 42.9927 25.58 42.1927 25.88C41.4127 26.18 40.5527 26.33 39.6127 26.33C38.2127 26.33 37.0927 26.02 36.2527 25.4C35.4327 24.76 35.0227 23.9 35.0227 22.82C35.0227 21.68 35.4927 20.74 36.4327 20C37.3927 19.24 38.7227 18.86 40.4227 18.86C41.1427 18.86 41.8127 18.94 42.4327 19.1C43.0527 19.26 43.6727 19.53 44.2927 19.91V18.17ZM37.7827 22.7C37.7827 23.22 37.9927 23.62 38.4127 23.9C38.8527 24.16 39.5427 24.29 40.4827 24.29C41.1627 24.29 41.7327 24.22 42.1927 24.08C42.6727 23.94 43.0527 23.78 43.3327 23.6C43.6327 23.4 43.8427 23.19 43.9627 22.97C44.1027 22.73 44.1727 22.52 44.1727 22.34C44.1727 21.92 43.8627 21.55 43.2427 21.23C42.6427 20.89 41.8427 20.72 40.8427 20.72C39.7227 20.72 38.9327 20.93 38.4727 21.35C38.0127 21.75 37.7827 22.2 37.7827 22.7ZM60.0596 13.16C60.0396 12.94 60.0196 12.73 59.9996 12.53C59.9996 12.33 59.9996 12.17 59.9996 12.05C59.9996 11.71 60.0896 11.4 60.2696 11.12C60.4496 10.82 60.7796 10.67 61.2596 10.67C61.7396 10.67 62.0496 10.83 62.1896 11.15C62.3296 11.45 62.3996 11.77 62.3996 12.11C62.3996 12.17 62.3996 12.39 62.3996 12.77C62.3996 13.13 62.3996 13.53 62.3996 13.97C62.4196 14.41 62.4296 14.83 62.4296 15.23C62.4296 15.63 62.4296 15.87 62.4296 15.95C62.4296 16.53 62.3396 16.94 62.1596 17.18C61.9996 17.42 61.6896 17.54 61.2296 17.54C60.7896 17.54 60.4696 17.43 60.2696 17.21C60.0696 16.99 59.9496 16.79 59.9096 16.61C59.8296 16.29 59.7396 15.97 59.6396 15.65C59.5396 15.33 59.3696 15.04 59.1296 14.78C58.9096 14.52 58.6096 14.31 58.2296 14.15C57.8696 13.97 57.3796 13.88 56.7596 13.88C55.9996 13.88 55.3396 14.02 54.7796 14.3C54.2196 14.56 53.7596 14.92 53.3996 15.38C53.0396 15.84 52.7696 16.4 52.5896 17.06C52.4096 17.7 52.3196 18.39 52.3196 19.13C52.3196 20.55 52.6596 21.69 53.3396 22.55C54.0196 23.39 55.1296 23.81 56.6696 23.81C57.6896 23.81 58.4896 23.65 59.0696 23.33C59.6696 23.01 60.1696 22.62 60.5696 22.16C60.7896 21.9 61.0096 21.67 61.2296 21.47C61.4696 21.27 61.7596 21.17 62.0996 21.17C62.4396 21.17 62.6996 21.27 62.8796 21.47C63.0596 21.65 63.1496 21.86 63.1496 22.1C63.1496 22.2 63.1296 22.34 63.0896 22.52C63.0696 22.68 63.0096 22.84 62.9096 23C62.7296 23.34 62.4696 23.7 62.1296 24.08C61.8096 24.44 61.3896 24.78 60.8696 25.1C60.3696 25.42 59.7696 25.68 59.0696 25.88C58.3696 26.08 57.5696 26.18 56.6696 26.18C55.5696 26.18 54.5696 26 53.6696 25.64C52.7896 25.26 52.0296 24.75 51.3896 24.11C50.7496 23.47 50.2496 22.72 49.8896 21.86C49.5496 21 49.3796 20.07 49.3796 19.07C49.3796 18.09 49.5496 17.15 49.8896 16.25C50.2296 15.33 50.7096 14.53 51.3296 13.85C51.9496 13.15 52.6996 12.59 53.5796 12.17C54.4596 11.75 55.4396 11.54 56.5196 11.54C57.1196 11.54 57.7496 11.64 58.4096 11.84C59.0696 12.04 59.6196 12.48 60.0596 13.16ZM76.8568 16.46C76.8568 16.12 76.8068 15.83 76.7068 15.59C76.6268 15.35 76.4068 15.23 76.0468 15.23H74.4568C74.1168 15.23 73.8568 15.15 73.6768 14.99C73.5168 14.81 73.4368 14.58 73.4368 14.3C73.4368 14.1 73.4768 13.93 73.5568 13.79C73.6368 13.63 73.7968 13.5 74.0368 13.4C74.2768 13.28 74.6168 13.19 75.0568 13.13C75.4968 13.07 76.0768 13.04 76.7968 13.04C77.3568 13.04 77.8168 13.05 78.1768 13.07C78.5368 13.09 78.8168 13.15 79.0168 13.25C79.2368 13.33 79.3868 13.47 79.4668 13.67C79.5668 13.87 79.6168 14.15 79.6168 14.51C79.6168 14.73 79.6068 14.99 79.5868 15.29C79.5868 15.59 79.5768 16 79.5568 16.52C79.5568 17.04 79.5468 17.69 79.5268 18.47C79.5268 19.23 79.5268 20.18 79.5268 21.32C79.5268 22.12 79.5268 22.7 79.5268 23.06C79.5468 23.4 79.5568 23.6 79.5568 23.66C79.5568 23.88 79.6068 24.05 79.7068 24.17C79.8268 24.29 80.0568 24.35 80.3968 24.35C80.5368 24.35 80.6968 24.36 80.8768 24.38C81.0768 24.38 81.2168 24.39 81.2968 24.41C81.4968 24.45 81.6568 24.54 81.7768 24.68C81.9168 24.8 81.9868 25.02 81.9868 25.34C81.9868 25.56 81.9568 25.75 81.8968 25.91C81.8368 26.07 81.6668 26.2 81.3868 26.3C81.1068 26.42 80.6768 26.51 80.0968 26.57C79.5168 26.63 78.7168 26.66 77.6968 26.66C77.4968 26.66 77.3368 26.61 77.2168 26.51C77.0968 26.43 77.0068 26.27 76.9468 26.03C76.8868 25.81 76.8468 25.5 76.8268 25.1C76.8068 24.7 76.7968 24.19 76.7968 23.57C76.6568 23.89 76.4568 24.23 76.1968 24.59C75.9368 24.95 75.6068 25.28 75.2068 25.58C74.8268 25.88 74.3668 26.12 73.8268 26.3C73.2868 26.5 72.6668 26.6 71.9668 26.6C71.0268 26.6 70.2468 26.42 69.6268 26.06C69.0068 25.72 68.4968 25.26 68.0968 24.68C67.7168 24.1 67.4468 23.44 67.2868 22.7C67.1268 21.94 67.0468 21.17 67.0468 20.39V15.17C67.0468 14.71 66.9968 14.41 66.8968 14.27C66.8168 14.11 66.5468 14.03 66.0868 14.03H65.3668C64.9868 14.03 64.6668 13.98 64.4068 13.88C64.1468 13.78 64.0168 13.5 64.0168 13.04C64.0168 12.84 64.0668 12.66 64.1668 12.5C64.2668 12.34 64.4468 12.22 64.7068 12.14C64.9668 12.04 65.3068 11.97 65.7268 11.93C66.1668 11.87 66.7068 11.84 67.3468 11.84C67.8668 11.84 68.2868 11.85 68.6068 11.87C68.9468 11.89 69.2068 11.95 69.3868 12.05C69.5868 12.13 69.7168 12.26 69.7768 12.44C69.8568 12.62 69.8968 12.87 69.8968 13.19C69.8968 13.45 69.8868 13.8 69.8668 14.24C69.8668 14.68 69.8568 15.16 69.8368 15.68C69.8168 16.2 69.7968 16.73 69.7768 17.27C69.7768 17.79 69.7768 18.27 69.7768 18.71C69.7768 19.29 69.7868 19.91 69.8068 20.57C69.8468 21.21 69.9568 21.81 70.1368 22.37C70.3168 22.91 70.5968 23.36 70.9768 23.72C71.3568 24.08 71.9068 24.26 72.6268 24.26C73.1868 24.26 73.7168 24.15 74.2168 23.93C74.7168 23.71 75.1568 23.42 75.5368 23.06C75.9168 22.68 76.2168 22.25 76.4368 21.77C76.6768 21.29 76.7968 20.79 76.7968 20.27L76.8568 16.46ZM87.2258 3.17C87.2258 4.17 87.2158 5.03 87.1958 5.75C87.1958 6.47 87.1958 6.96 87.1958 7.22C87.1958 11.58 87.2058 15.11 87.2258 17.81C87.2458 20.49 87.2558 22.47 87.2558 23.75H88.3058C89.0058 23.75 89.4658 23.88 89.6858 24.14C89.9058 24.38 90.0158 24.66 90.0158 24.98C90.0158 25.16 89.9158 25.38 89.7158 25.64C89.5158 25.9 89.1658 26.03 88.6658 26.03C88.5258 26.03 88.3058 26.02 88.0058 26C87.7258 26 87.4258 26 87.1058 26C86.8058 25.98 86.5058 25.97 86.2058 25.97C85.9258 25.95 85.7058 25.94 85.5458 25.94C85.0058 25.94 84.5158 25.95 84.0758 25.97C83.6358 25.99 83.2558 26 82.9358 26C82.3958 26 81.9958 25.89 81.7358 25.67C81.4958 25.43 81.3758 25.15 81.3758 24.83C81.3758 24.51 81.4558 24.29 81.6158 24.17C81.7758 24.03 81.9558 23.95 82.1558 23.93L83.2658 23.87C83.5658 23.85 83.8158 23.76 84.0158 23.6C84.2358 23.42 84.3558 23.19 84.3758 22.91C84.3958 22.39 84.4158 21.83 84.4358 21.23C84.4558 20.63 84.4758 19.97 84.4958 19.25C84.5158 18.51 84.5258 17.68 84.5258 16.76C84.5258 15.84 84.5258 14.79 84.5258 13.61C84.5258 12.39 84.5258 11.32 84.5258 10.4C84.5258 9.48 84.5158 8.66 84.4958 7.94C84.4958 7.22 84.4958 6.58 84.4958 6.02C84.4958 5.44 84.4958 4.87 84.4958 4.31C84.4958 3.97 84.3958 3.73 84.1958 3.59C84.0158 3.43 83.7858 3.35 83.5058 3.35H82.2158C81.6958 3.35 81.3358 3.29 81.1358 3.17C80.9158 3.05 80.8058 2.87 80.8058 2.63C80.8058 2.41 80.8658 2.22 80.9858 2.06C81.1058 1.9 81.3458 1.77 81.7058 1.67C82.0658 1.57 82.5658 1.5 83.2058 1.46C83.8458 1.4 84.6858 1.37 85.7258 1.37C86.0658 1.37 86.3358 1.38 86.5358 1.4C86.7358 1.42 86.8858 1.49 86.9858 1.61C87.0858 1.73 87.1458 1.91 87.1658 2.15C87.2058 2.39 87.2258 2.73 87.2258 3.17ZM105.272 19.07C105.272 20.29 105.042 21.36 104.582 22.28C104.142 23.18 103.562 23.93 102.842 24.53C102.122 25.13 101.312 25.58 100.412 25.88C99.5124 26.18 98.6224 26.33 97.7424 26.33C96.6224 26.33 95.6124 26.16 94.7124 25.82C93.8324 25.46 93.0724 24.96 92.4324 24.32C91.8124 23.68 91.3324 22.92 90.9924 22.04C90.6724 21.14 90.5124 20.16 90.5124 19.1C90.5124 18.06 90.6824 17.1 91.0224 16.22C91.3624 15.32 91.8524 14.55 92.4924 13.91C93.1324 13.27 93.9124 12.77 94.8324 12.41C95.7724 12.03 96.8324 11.84 98.0124 11.84C99.1724 11.84 100.202 12.04 101.102 12.44C102.022 12.84 102.782 13.37 103.382 14.03C104.002 14.69 104.472 15.46 104.792 16.34C105.112 17.2 105.272 18.11 105.272 19.07ZM98.0724 14.18C97.4524 14.18 96.8624 14.29 96.3024 14.51C95.7424 14.71 95.2424 15.02 94.8024 15.44C94.3824 15.86 94.0424 16.38 93.7824 17C93.5224 17.6 93.3924 18.29 93.3924 19.07C93.3924 19.89 93.5224 20.61 93.7824 21.23C94.0624 21.85 94.4124 22.36 94.8324 22.76C95.2724 23.16 95.7524 23.46 96.2724 23.66C96.7924 23.86 97.3024 23.96 97.8024 23.96C98.2824 23.96 98.7924 23.86 99.3324 23.66C99.8924 23.46 100.402 23.16 100.862 22.76C101.322 22.34 101.702 21.82 102.002 21.2C102.302 20.56 102.452 19.81 102.452 18.95C102.452 18.27 102.342 17.64 102.122 17.06C101.922 16.46 101.622 15.95 101.222 15.53C100.842 15.11 100.382 14.78 99.8424 14.54C99.3024 14.3 98.7124 14.18 98.0724 14.18Z" fill="white"/>
</svg>
